<?xml version="1.0" encoding="UTF-8" standalone="no"?>
<!DOCTYPE svg PUBLIC "-//W3C//DTD SVG 1.1//EN"
 "http://www.w3.org/Graphics/SVG/1.1/DTD/svg11.dtd">
<!-- Generated by graphviz version 2.43.0 (0)
 -->
<!-- Title: controllers_diagram Pages: 1 -->
<svg width="619pt" height="605pt"
 viewBox="0.00 0.00 619.00 605.00" xmlns="http://www.w3.org/2000/svg" xmlns:xlink="http://www.w3.org/1999/xlink">
<g id="graph0" class="graph" transform="scale(1 1) rotate(0) translate(4 601)">
<title>controllers_diagram</title>
<polygon fill="transparent" stroke="transparent" points="-4,4 -4,-601 615,-601 615,4 -4,4"/>
<!-- _diagram_info -->
<g id="node1" class="node">
<title>_diagram_info</title>
<text text-anchor="start" x="348" y="-403.6" font-family="Times,serif" font-size="13.00">Controllers diagram</text>
<text text-anchor="start" x="348" y="-389.6" font-family="Times,serif" font-size="13.00">Date: May 31 2022 &#45; 16:02</text>
<text text-anchor="start" x="348" y="-375.6" font-family="Times,serif" font-size="13.00">Migration version: 20220321234950</text>
<text text-anchor="start" x="348" y="-361.6" font-family="Times,serif" font-size="13.00">Generated by RailRoady 1.5.3</text>
<text text-anchor="start" x="348" y="-347.6" font-family="Times,serif" font-size="13.00">http://railroady.prestonlee.com</text>
</g>
<!-- GenesController -->
<g id="node2" class="node">
<title>GenesController</title>
<path fill="none" stroke="black" d="M12,-0.5C12,-0.5 122,-0.5 122,-0.5 128,-0.5 134,-6.5 134,-12.5 134,-12.5 134,-125.5 134,-125.5 134,-131.5 128,-137.5 122,-137.5 122,-137.5 12,-137.5 12,-137.5 6,-137.5 0,-131.5 0,-125.5 0,-125.5 0,-12.5 0,-12.5 0,-6.5 6,-0.5 12,-0.5"/>
<text text-anchor="middle" x="67" y="-122.3" font-family="Times,serif" font-size="14.00">GenesController</text>
<polyline fill="none" stroke="black" points="0,-114.5 134,-114.5 "/>
<text text-anchor="start" x="8" y="-99.3" font-family="Times,serif" font-size="14.00">index</text>
<text text-anchor="start" x="8" y="-84.3" font-family="Times,serif" font-size="14.00">show</text>
<text text-anchor="start" x="8" y="-69.3" font-family="Times,serif" font-size="14.00">show_by_hgnc</text>
<polyline fill="none" stroke="black" points="0,-61.5 134,-61.5 "/>
<text text-anchor="start" x="8" y="-46.3" font-family="Times,serif" font-size="14.00">page_title</text>
<text text-anchor="start" x="8" y="-31.3" font-family="Times,serif" font-size="14.00">show_gene</text>
<polyline fill="none" stroke="black" points="0,-23.5 134,-23.5 "/>
<text text-anchor="start" x="8" y="-8.3" font-family="Times,serif" font-size="14.00">_layout</text>
</g>
<!-- LncrnasController -->
<g id="node3" class="node">
<title>LncrnasController</title>
<path fill="none" stroke="black" d="M165,-357.5C165,-357.5 287,-357.5 287,-357.5 293,-357.5 299,-363.5 299,-369.5 299,-369.5 299,-482.5 299,-482.5 299,-488.5 293,-494.5 287,-494.5 287,-494.5 165,-494.5 165,-494.5 159,-494.5 153,-488.5 153,-482.5 153,-482.5 153,-369.5 153,-369.5 153,-363.5 159,-357.5 165,-357.5"/>
<text text-anchor="middle" x="226" y="-479.3" font-family="Times,serif" font-size="14.00">LncrnasController</text>
<polyline fill="none" stroke="black" points="153,-471.5 299,-471.5 "/>
<text text-anchor="start" x="161" y="-456.3" font-family="Times,serif" font-size="14.00">index</text>
<text text-anchor="start" x="161" y="-441.3" font-family="Times,serif" font-size="14.00">show</text>
<text text-anchor="start" x="161" y="-426.3" font-family="Times,serif" font-size="14.00">show_by_hgnc</text>
<polyline fill="none" stroke="black" points="153,-418.5 299,-418.5 "/>
<text text-anchor="start" x="161" y="-403.3" font-family="Times,serif" font-size="14.00">page_title</text>
<text text-anchor="start" x="161" y="-388.3" font-family="Times,serif" font-size="14.00">show_lncrna</text>
<polyline fill="none" stroke="black" points="153,-380.5 299,-380.5 "/>
<text text-anchor="start" x="161" y="-365.3" font-family="Times,serif" font-size="14.00">_layout</text>
</g>
<!-- ApplicationController -->
<g id="node4" class="node">
<title>ApplicationController</title>
<path fill="none" stroke="black" d="M182,-51.5C182,-51.5 328,-51.5 328,-51.5 334,-51.5 340,-57.5 340,-63.5 340,-63.5 340,-131.5 340,-131.5 340,-137.5 334,-143.5 328,-143.5 328,-143.5 182,-143.5 182,-143.5 176,-143.5 170,-137.5 170,-131.5 170,-131.5 170,-63.5 170,-63.5 170,-57.5 176,-51.5 182,-51.5"/>
<text text-anchor="middle" x="255" y="-128.3" font-family="Times,serif" font-size="14.00">ApplicationController</text>
<polyline fill="none" stroke="black" points="170,-120.5 340,-120.5 "/>
<text text-anchor="start" x="178" y="-105.3" font-family="Times,serif" font-size="14.00">page_title</text>
<polyline fill="none" stroke="black" points="170,-97.5 340,-97.5 "/>
<text text-anchor="start" x="178" y="-82.3" font-family="Times,serif" font-size="14.00">allow_iframe</text>
<polyline fill="none" stroke="black" points="170,-74.5 340,-74.5 "/>
<text text-anchor="start" x="178" y="-59.3" font-family="Times,serif" font-size="14.00">_layout</text>
</g>
<!-- EpigeneWelcomeController -->
<g id="node5" class="node">
<title>EpigeneWelcomeController</title>
<path fill="none" stroke="black" d="M148,-170.5C148,-170.5 336,-170.5 336,-170.5 342,-170.5 348,-176.5 348,-182.5 348,-182.5 348,-296.5 348,-296.5 348,-302.5 342,-308.5 336,-308.5 336,-308.5 148,-308.5 148,-308.5 142,-308.5 136,-302.5 136,-296.5 136,-296.5 136,-182.5 136,-182.5 136,-176.5 142,-170.5 148,-170.5"/>
<text text-anchor="middle" x="242" y="-293.3" font-family="Times,serif" font-size="14.00">EpigeneWelcomeController</text>
<polyline fill="none" stroke="black" points="136,-285.5 348,-285.5 "/>
<text text-anchor="start" x="144" y="-270.3" font-family="Times,serif" font-size="14.00">description</text>
<text text-anchor="start" x="144" y="-255.3" font-family="Times,serif" font-size="14.00">description_queries</text>
<text text-anchor="start" x="144" y="-240.3" font-family="Times,serif" font-size="14.00">index</text>
<text text-anchor="start" x="144" y="-225.3" font-family="Times,serif" font-size="14.00">search</text>
<polyline fill="none" stroke="black" points="136,-217.5 348,-217.5 "/>
<polyline fill="none" stroke="black" points="136,-193.5 348,-193.5 "/>
<text text-anchor="start" x="144" y="-178.3" font-family="Times,serif" font-size="14.00">_layout</text>
</g>
<!-- SamplesController -->
<g id="node6" class="node">
<title>SamplesController</title>
<path fill="none" stroke="black" d="M386,-0.5C386,-0.5 512,-0.5 512,-0.5 518,-0.5 524,-6.5 524,-12.5 524,-12.5 524,-95.5 524,-95.5 524,-101.5 518,-107.5 512,-107.5 512,-107.5 386,-107.5 386,-107.5 380,-107.5 374,-101.5 374,-95.5 374,-95.5 374,-12.5 374,-12.5 374,-6.5 380,-0.5 386,-0.5"/>
<text text-anchor="middle" x="449" y="-92.3" font-family="Times,serif" font-size="14.00">SamplesController</text>
<polyline fill="none" stroke="black" points="374,-84.5 524,-84.5 "/>
<text text-anchor="start" x="382" y="-69.3" font-family="Times,serif" font-size="14.00">index</text>
<text text-anchor="start" x="382" y="-54.3" font-family="Times,serif" font-size="14.00">show</text>
<polyline fill="none" stroke="black" points="374,-46.5 524,-46.5 "/>
<text text-anchor="start" x="382" y="-31.3" font-family="Times,serif" font-size="14.00">page_title</text>
<polyline fill="none" stroke="black" points="374,-23.5 524,-23.5 "/>
<text text-anchor="start" x="382" y="-8.3" font-family="Times,serif" font-size="14.00">_layout</text>
</g>
<!-- ProteinComplexesController -->
<g id="node7" class="node">
<title>ProteinComplexesController</title>
<path fill="none" stroke="black" d="M386,-136.5C386,-136.5 582,-136.5 582,-136.5 588,-136.5 594,-142.5 594,-148.5 594,-148.5 594,-231.5 594,-231.5 594,-237.5 588,-243.5 582,-243.5 582,-243.5 386,-243.5 386,-243.5 380,-243.5 374,-237.5 374,-231.5 374,-231.5 374,-148.5 374,-148.5 374,-142.5 380,-136.5 386,-136.5"/>
<text text-anchor="middle" x="484" y="-228.3" font-family="Times,serif" font-size="14.00">ProteinComplexesController</text>
<polyline fill="none" stroke="black" points="374,-220.5 594,-220.5 "/>
<text text-anchor="start" x="382" y="-205.3" font-family="Times,serif" font-size="14.00">index</text>
<text text-anchor="start" x="382" y="-190.3" font-family="Times,serif" font-size="14.00">show</text>
<polyline fill="none" stroke="black" points="374,-182.5 594,-182.5 "/>
<text text-anchor="start" x="382" y="-167.3" font-family="Times,serif" font-size="14.00">page_title</text>
<polyline fill="none" stroke="black" points="374,-159.5 594,-159.5 "/>
<text text-anchor="start" x="382" y="-144.3" font-family="Times,serif" font-size="14.00">_layout</text>
</g>
<!-- HistonesController -->
<g id="node8" class="node">
<title>HistonesController</title>
<path fill="none" stroke="black" d="M471,-459.5C471,-459.5 599,-459.5 599,-459.5 605,-459.5 611,-465.5 611,-471.5 611,-471.5 611,-584.5 611,-584.5 611,-590.5 605,-596.5 599,-596.5 599,-596.5 471,-596.5 471,-596.5 465,-596.5 459,-590.5 459,-584.5 459,-584.5 459,-471.5 459,-471.5 459,-465.5 465,-459.5 471,-459.5"/>
<text text-anchor="middle" x="535" y="-581.3" font-family="Times,serif" font-size="14.00">HistonesController</text>
<polyline fill="none" stroke="black" points="459,-573.5 611,-573.5 "/>
<text text-anchor="start" x="467" y="-558.3" font-family="Times,serif" font-size="14.00">index</text>
<text text-anchor="start" x="467" y="-543.3" font-family="Times,serif" font-size="14.00">show</text>
<text text-anchor="start" x="467" y="-528.3" font-family="Times,serif" font-size="14.00">show_by_hgnc</text>
<polyline fill="none" stroke="black" points="459,-520.5 611,-520.5 "/>
<text text-anchor="start" x="467" y="-505.3" font-family="Times,serif" font-size="14.00">page_title</text>
<text text-anchor="start" x="467" y="-490.3" font-family="Times,serif" font-size="14.00">show_histone</text>
<polyline fill="none" stroke="black" points="459,-482.5 611,-482.5 "/>
<text text-anchor="start" x="467" y="-467.3" font-family="Times,serif" font-size="14.00">_layout</text>
</g>
</g>
</svg>
