<?xml version="1.0" encoding="UTF-8" standalone="no"?>
<!DOCTYPE svg PUBLIC "-//W3C//DTD SVG 1.1//EN"
 "http://www.w3.org/Graphics/SVG/1.1/DTD/svg11.dtd">
<!-- Generated by graphviz version 2.43.0 (0)
 -->
<!-- Title: models_diagram Pages: 1 -->
<svg width="1483pt" height="86pt"
 viewBox="0.00 0.00 1482.95 86.00" xmlns="http://www.w3.org/2000/svg" xmlns:xlink="http://www.w3.org/1999/xlink">
<g id="graph0" class="graph" transform="scale(1 1) rotate(0) translate(4 82)">
<title>models_diagram</title>
<polygon fill="transparent" stroke="transparent" points="-4,4 -4,-82 1478.95,-82 1478.95,4 -4,4"/>
<!-- _diagram_info -->
<g id="node1" class="node">
<title>_diagram_info</title>
<text text-anchor="start" x="8" y="-63.6" font-family="Times,serif" font-size="13.00">Models diagram</text>
<text text-anchor="start" x="8" y="-49.6" font-family="Times,serif" font-size="13.00">Date: May 31 2022 &#45; 16:02</text>
<text text-anchor="start" x="8" y="-35.6" font-family="Times,serif" font-size="13.00">Migration version: 20220321234950</text>
<text text-anchor="start" x="8" y="-21.6" font-family="Times,serif" font-size="13.00">Generated by RailRoady 1.5.3</text>
<text text-anchor="start" x="8" y="-7.6" font-family="Times,serif" font-size="13.00">http://railroady.prestonlee.com</text>
</g>
<!-- Sample -->
<g id="node2" class="node">
<title>Sample</title>
<polygon fill="none" stroke="black" points="347.5,-57 277.5,-57 277.5,-21 347.5,-21 347.5,-57"/>
<text text-anchor="middle" x="312.5" y="-35.3" font-family="Times,serif" font-size="14.00">Sample</text>
</g>
<!-- ProteinComplex -->
<g id="node3" class="node">
<title>ProteinComplex</title>
<ellipse fill="none" stroke="black" cx="450.5" cy="-39" rx="85.29" ry="18"/>
<text text-anchor="middle" x="450.5" y="-35.3" font-family="Times,serif" font-size="14.00">ProteinComplex</text>
</g>
<!-- Lncrna -->
<g id="node4" class="node">
<title>Lncrna</title>
<ellipse fill="none" stroke="black" cx="596.5" cy="-39" rx="42.79" ry="18"/>
<text text-anchor="middle" x="596.5" y="-35.3" font-family="Times,serif" font-size="14.00">Lncrna</text>
</g>
<!-- ComplexPattern -->
<g id="node5" class="node">
<title>ComplexPattern</title>
<polygon fill="none" stroke="black" stroke-dasharray="1,5" points="789.5,-57 657.5,-57 657.5,-21 789.5,-21 789.5,-57"/>
<text text-anchor="middle" x="723.5" y="-35.3" font-family="Times,serif" font-size="14.00">ComplexPattern</text>
</g>
<!-- Histone -->
<g id="node6" class="node">
<title>Histone</title>
<ellipse fill="none" stroke="black" cx="854.5" cy="-39" rx="46.59" ry="18"/>
<text text-anchor="middle" x="854.5" y="-35.3" font-family="Times,serif" font-size="14.00">Histone</text>
</g>
<!-- UniprotHocomocoMapping -->
<g id="node7" class="node">
<title>UniprotHocomocoMapping</title>
<polygon fill="none" stroke="black" points="1128,-57 919,-57 919,-21 1128,-21 1128,-57"/>
<text text-anchor="middle" x="1023.5" y="-35.3" font-family="Times,serif" font-size="14.00">UniprotHocomocoMapping</text>
</g>
<!-- Statistics -->
<g id="node8" class="node">
<title>Statistics</title>
<polygon fill="none" stroke="black" points="1230.5,-57 1146.5,-57 1146.5,-21 1230.5,-21 1230.5,-57"/>
<text text-anchor="middle" x="1188.5" y="-35.3" font-family="Times,serif" font-size="14.00">Statistics</text>
</g>
<!-- GeneExpressions -->
<g id="node9" class="node">
<title>GeneExpressions</title>
<polygon fill="none" stroke="black" points="1388.5,-57 1248.5,-57 1248.5,-21 1388.5,-21 1388.5,-57"/>
<text text-anchor="middle" x="1318.5" y="-35.3" font-family="Times,serif" font-size="14.00">GeneExpressions</text>
</g>
<!-- Gene -->
<g id="node10" class="node">
<title>Gene</title>
<ellipse fill="none" stroke="black" cx="1440.5" cy="-39" rx="34.39" ry="18"/>
<text text-anchor="middle" x="1440.5" y="-35.3" font-family="Times,serif" font-size="14.00">Gene</text>
</g>
</g>
</svg>
