<?xml version="1.0" encoding="UTF-8" standalone="no"?>
<!DOCTYPE svg PUBLIC "-//W3C//DTD SVG 1.1//EN"
 "http://www.w3.org/Graphics/SVG/1.1/DTD/svg11.dtd">
<!-- Generated by graphviz version 2.43.0 (0)
 -->
<!-- Title: models_diagram Pages: 1 -->
<svg width="1924pt" height="445pt"
 viewBox="0.00 0.00 1923.50 445.00" xmlns="http://www.w3.org/2000/svg" xmlns:xlink="http://www.w3.org/1999/xlink">
<g id="graph0" class="graph" transform="scale(1 1) rotate(0) translate(4 441)">
<title>models_diagram</title>
<polygon fill="transparent" stroke="transparent" points="-4,4 -4,-441 1919.5,-441 1919.5,4 -4,4"/>
<!-- _diagram_info -->
<g id="node1" class="node">
<title>_diagram_info</title>
<text text-anchor="start" x="8" y="-243.1" font-family="Times,serif" font-size="13.00">Models diagram</text>
<text text-anchor="start" x="8" y="-229.1" font-family="Times,serif" font-size="13.00">Date: May 31 2022 &#45; 16:02</text>
<text text-anchor="start" x="8" y="-215.1" font-family="Times,serif" font-size="13.00">Migration version: 20220321234950</text>
<text text-anchor="start" x="8" y="-201.1" font-family="Times,serif" font-size="13.00">Generated by RailRoady 1.5.3</text>
<text text-anchor="start" x="8" y="-187.1" font-family="Times,serif" font-size="13.00">http://railroady.prestonlee.com</text>
</g>
<!-- Sample -->
<g id="node2" class="node">
<title>Sample</title>
<polygon fill="none" stroke="black" points="277.5,-195.5 277.5,-241.5 347.5,-241.5 347.5,-195.5 277.5,-195.5"/>
<text text-anchor="middle" x="312.5" y="-226.3" font-family="Times,serif" font-size="14.00">Sample</text>
<polyline fill="none" stroke="black" points="277.5,-218.5 347.5,-218.5 "/>
<text text-anchor="middle" x="312.5" y="-203.3" font-family="Times,serif" font-size="14.00"> </text>
</g>
<!-- ProteinComplex -->
<g id="node3" class="node">
<title>ProteinComplex</title>
<path fill="none" stroke="black" d="M378,-53C378,-53 563,-53 563,-53 569,-53 575,-59 575,-65 575,-65 575,-372 575,-372 575,-378 569,-384 563,-384 563,-384 378,-384 378,-384 372,-384 366,-378 366,-372 366,-372 366,-65 366,-65 366,-59 372,-53 378,-53"/>
<text text-anchor="middle" x="470.5" y="-368.8" font-family="Times,serif" font-size="14.00">ProteinComplex</text>
<polyline fill="none" stroke="black" points="366,-361 575,-361 "/>
<text text-anchor="start" x="374" y="-345.8" font-family="Times,serif" font-size="14.00">id :INTEGER</text>
<text text-anchor="start" x="374" y="-330.8" font-family="Times,serif" font-size="14.00">group :varchar</text>
<text text-anchor="start" x="374" y="-315.8" font-family="Times,serif" font-size="14.00">group_name :varchar</text>
<text text-anchor="start" x="374" y="-300.8" font-family="Times,serif" font-size="14.00">complex_name :varchar</text>
<text text-anchor="start" x="374" y="-285.8" font-family="Times,serif" font-size="14.00">status :varchar</text>
<text text-anchor="start" x="374" y="-270.8" font-family="Times,serif" font-size="14.00">alternative_name :varchar</text>
<text text-anchor="start" x="374" y="-255.8" font-family="Times,serif" font-size="14.00">protein :text</text>
<text text-anchor="start" x="374" y="-240.8" font-family="Times,serif" font-size="14.00">uniprot_id :text</text>
<text text-anchor="start" x="374" y="-225.8" font-family="Times,serif" font-size="14.00">pmid_complex :varchar</text>
<text text-anchor="start" x="374" y="-210.8" font-family="Times,serif" font-size="14.00">function :varchar</text>
<text text-anchor="start" x="374" y="-195.8" font-family="Times,serif" font-size="14.00">pmid_function :varchar</text>
<text text-anchor="start" x="374" y="-180.8" font-family="Times,serif" font-size="14.00">target :varchar</text>
<text text-anchor="start" x="374" y="-165.8" font-family="Times,serif" font-size="14.00">specific_target :varchar</text>
<text text-anchor="start" x="374" y="-150.8" font-family="Times,serif" font-size="14.00">product :varchar</text>
<text text-anchor="start" x="374" y="-135.8" font-family="Times,serif" font-size="14.00">uniprot_id_target :text</text>
<text text-anchor="start" x="374" y="-120.8" font-family="Times,serif" font-size="14.00">pmid_target :varchar</text>
<text text-anchor="start" x="374" y="-105.8" font-family="Times,serif" font-size="14.00">comment :text</text>
<text text-anchor="start" x="374" y="-90.8" font-family="Times,serif" font-size="14.00">created_at :datetime</text>
<text text-anchor="start" x="374" y="-75.8" font-family="Times,serif" font-size="14.00">updated_at :datetime</text>
<text text-anchor="start" x="374" y="-60.8" font-family="Times,serif" font-size="14.00">genes_in_complex :varchar</text>
</g>
<!-- Lncrna -->
<g id="node4" class="node">
<title>Lncrna</title>
<path fill="none" stroke="black" d="M605.5,-68C605.5,-68 793.5,-68 793.5,-68 799.5,-68 805.5,-74 805.5,-80 805.5,-80 805.5,-357 805.5,-357 805.5,-363 799.5,-369 793.5,-369 793.5,-369 605.5,-369 605.5,-369 599.5,-369 593.5,-363 593.5,-357 593.5,-357 593.5,-80 593.5,-80 593.5,-74 599.5,-68 605.5,-68"/>
<text text-anchor="middle" x="699.5" y="-353.8" font-family="Times,serif" font-size="14.00">Lncrna</text>
<polyline fill="none" stroke="black" points="593.5,-346 805.5,-346 "/>
<text text-anchor="start" x="601.5" y="-330.8" font-family="Times,serif" font-size="14.00">id :INTEGER</text>
<text text-anchor="start" x="601.5" y="-315.8" font-family="Times,serif" font-size="14.00">hgnc_symbol :varchar</text>
<text text-anchor="start" x="601.5" y="-300.8" font-family="Times,serif" font-size="14.00">status :varchar</text>
<text text-anchor="start" x="601.5" y="-285.8" font-family="Times,serif" font-size="14.00">hgnc_id :varchar</text>
<text text-anchor="start" x="601.5" y="-270.8" font-family="Times,serif" font-size="14.00">alternative_names :varchar</text>
<text text-anchor="start" x="601.5" y="-255.8" font-family="Times,serif" font-size="14.00">hgnc_name :varchar</text>
<text text-anchor="start" x="601.5" y="-240.8" font-family="Times,serif" font-size="14.00">gene_id :varchar</text>
<text text-anchor="start" x="601.5" y="-225.8" font-family="Times,serif" font-size="14.00">gene_tag :varchar</text>
<text text-anchor="start" x="601.5" y="-210.8" font-family="Times,serif" font-size="14.00">gene_desc :varchar</text>
<text text-anchor="start" x="601.5" y="-195.8" font-family="Times,serif" font-size="14.00">function :text</text>
<text text-anchor="start" x="601.5" y="-180.8" font-family="Times,serif" font-size="14.00">pmid_function :varchar</text>
<text text-anchor="start" x="601.5" y="-165.8" font-family="Times,serif" font-size="14.00">target :varchar</text>
<text text-anchor="start" x="601.5" y="-150.8" font-family="Times,serif" font-size="14.00">specific_target :varchar</text>
<text text-anchor="start" x="601.5" y="-135.8" font-family="Times,serif" font-size="14.00">uniprot_id_target :varchar</text>
<text text-anchor="start" x="601.5" y="-120.8" font-family="Times,serif" font-size="14.00">pmid_target :varchar</text>
<text text-anchor="start" x="601.5" y="-105.8" font-family="Times,serif" font-size="14.00">comment :text</text>
<text text-anchor="start" x="601.5" y="-90.8" font-family="Times,serif" font-size="14.00">created_at :datetime</text>
<text text-anchor="start" x="601.5" y="-75.8" font-family="Times,serif" font-size="14.00">updated_at :datetime</text>
</g>
<!-- ComplexPattern -->
<g id="node5" class="node">
<title>ComplexPattern</title>
<polygon fill="none" stroke="black" stroke-dasharray="1,5" points="955.5,-236.5 823.5,-236.5 823.5,-200.5 955.5,-200.5 955.5,-236.5"/>
<text text-anchor="middle" x="889.5" y="-214.8" font-family="Times,serif" font-size="14.00">ComplexPattern</text>
</g>
<!-- Histone -->
<g id="node6" class="node">
<title>Histone</title>
<path fill="none" stroke="black" d="M985.5,-38C985.5,-38 1193.5,-38 1193.5,-38 1199.5,-38 1205.5,-44 1205.5,-50 1205.5,-50 1205.5,-387 1205.5,-387 1205.5,-393 1199.5,-399 1193.5,-399 1193.5,-399 985.5,-399 985.5,-399 979.5,-399 973.5,-393 973.5,-387 973.5,-387 973.5,-50 973.5,-50 973.5,-44 979.5,-38 985.5,-38"/>
<text text-anchor="middle" x="1089.5" y="-383.8" font-family="Times,serif" font-size="14.00">Histone</text>
<polyline fill="none" stroke="black" points="973.5,-376 1205.5,-376 "/>
<text text-anchor="start" x="981.5" y="-360.8" font-family="Times,serif" font-size="14.00">id :INTEGER</text>
<text text-anchor="start" x="981.5" y="-345.8" font-family="Times,serif" font-size="14.00">hgnc_symbol :varchar</text>
<text text-anchor="start" x="981.5" y="-330.8" font-family="Times,serif" font-size="14.00">status :varchar</text>
<text text-anchor="start" x="981.5" y="-315.8" font-family="Times,serif" font-size="14.00">hgnc_id :varchar</text>
<text text-anchor="start" x="981.5" y="-300.8" font-family="Times,serif" font-size="14.00">hgnc_name :varchar</text>
<text text-anchor="start" x="981.5" y="-285.8" font-family="Times,serif" font-size="14.00">gene_id :varchar</text>
<text text-anchor="start" x="981.5" y="-270.8" font-family="Times,serif" font-size="14.00">uniprot_ac :varchar</text>
<text text-anchor="start" x="981.5" y="-255.8" font-family="Times,serif" font-size="14.00">uniprot_id :varchar</text>
<text text-anchor="start" x="981.5" y="-240.8" font-family="Times,serif" font-size="14.00">domain :varchar</text>
<text text-anchor="start" x="981.5" y="-225.8" font-family="Times,serif" font-size="14.00">mgi_symbol :varchar</text>
<text text-anchor="start" x="981.5" y="-210.8" font-family="Times,serif" font-size="14.00">mgi_id :varchar</text>
<text text-anchor="start" x="981.5" y="-195.8" font-family="Times,serif" font-size="14.00">uniprot_ac_mm :varchar</text>
<text text-anchor="start" x="981.5" y="-180.8" font-family="Times,serif" font-size="14.00">uniprot_id_mm :varchar</text>
<text text-anchor="start" x="981.5" y="-165.8" font-family="Times,serif" font-size="14.00">gene_tag :varchar</text>
<text text-anchor="start" x="981.5" y="-150.8" font-family="Times,serif" font-size="14.00">gene_desc :varchar</text>
<text text-anchor="start" x="981.5" y="-135.8" font-family="Times,serif" font-size="14.00">complex_name :varchar</text>
<text text-anchor="start" x="981.5" y="-120.8" font-family="Times,serif" font-size="14.00">targeted_by_protein :varchar</text>
<text text-anchor="start" x="981.5" y="-105.8" font-family="Times,serif" font-size="14.00">targeted_by_complex :varchar</text>
<text text-anchor="start" x="981.5" y="-90.8" font-family="Times,serif" font-size="14.00">pmid :varchar</text>
<text text-anchor="start" x="981.5" y="-75.8" font-family="Times,serif" font-size="14.00">comment :varchar</text>
<text text-anchor="start" x="981.5" y="-60.8" font-family="Times,serif" font-size="14.00">created_at :datetime</text>
<text text-anchor="start" x="981.5" y="-45.8" font-family="Times,serif" font-size="14.00">updated_at :datetime</text>
</g>
<!-- UniprotHocomocoMapping -->
<g id="node7" class="node">
<title>UniprotHocomocoMapping</title>
<polygon fill="none" stroke="black" points="1224,-195.5 1224,-241.5 1433,-241.5 1433,-195.5 1224,-195.5"/>
<text text-anchor="middle" x="1328.5" y="-226.3" font-family="Times,serif" font-size="14.00">UniprotHocomocoMapping</text>
<polyline fill="none" stroke="black" points="1224,-218.5 1433,-218.5 "/>
<text text-anchor="middle" x="1328.5" y="-203.3" font-family="Times,serif" font-size="14.00"> </text>
</g>
<!-- Statistics -->
<g id="node8" class="node">
<title>Statistics</title>
<polygon fill="none" stroke="black" points="1451.5,-195.5 1451.5,-241.5 1535.5,-241.5 1535.5,-195.5 1451.5,-195.5"/>
<text text-anchor="middle" x="1493.5" y="-226.3" font-family="Times,serif" font-size="14.00">Statistics</text>
<polyline fill="none" stroke="black" points="1451.5,-218.5 1535.5,-218.5 "/>
<text text-anchor="middle" x="1493.5" y="-203.3" font-family="Times,serif" font-size="14.00"> </text>
</g>
<!-- GeneExpressions -->
<g id="node9" class="node">
<title>GeneExpressions</title>
<polygon fill="none" stroke="black" points="1553.5,-195.5 1553.5,-241.5 1693.5,-241.5 1693.5,-195.5 1553.5,-195.5"/>
<text text-anchor="middle" x="1623.5" y="-226.3" font-family="Times,serif" font-size="14.00">GeneExpressions</text>
<polyline fill="none" stroke="black" points="1553.5,-218.5 1693.5,-218.5 "/>
<text text-anchor="middle" x="1623.5" y="-203.3" font-family="Times,serif" font-size="14.00"> </text>
</g>
<!-- Gene -->
<g id="node10" class="node">
<title>Gene</title>
<path fill="none" stroke="black" d="M1723.5,-0.5C1723.5,-0.5 1903.5,-0.5 1903.5,-0.5 1909.5,-0.5 1915.5,-6.5 1915.5,-12.5 1915.5,-12.5 1915.5,-424.5 1915.5,-424.5 1915.5,-430.5 1909.5,-436.5 1903.5,-436.5 1903.5,-436.5 1723.5,-436.5 1723.5,-436.5 1717.5,-436.5 1711.5,-430.5 1711.5,-424.5 1711.5,-424.5 1711.5,-12.5 1711.5,-12.5 1711.5,-6.5 1717.5,-0.5 1723.5,-0.5"/>
<text text-anchor="middle" x="1813.5" y="-421.3" font-family="Times,serif" font-size="14.00">Gene</text>
<polyline fill="none" stroke="black" points="1711.5,-413.5 1915.5,-413.5 "/>
<text text-anchor="start" x="1719.5" y="-398.3" font-family="Times,serif" font-size="14.00">id :INTEGER</text>
<text text-anchor="start" x="1719.5" y="-383.3" font-family="Times,serif" font-size="14.00">hgnc_symbol :varchar</text>
<text text-anchor="start" x="1719.5" y="-368.3" font-family="Times,serif" font-size="14.00">status :varchar</text>
<text text-anchor="start" x="1719.5" y="-353.3" font-family="Times,serif" font-size="14.00">hgnc_id :varchar</text>
<text text-anchor="start" x="1719.5" y="-338.3" font-family="Times,serif" font-size="14.00">hgnc_name :varchar</text>
<text text-anchor="start" x="1719.5" y="-323.3" font-family="Times,serif" font-size="14.00">gene_id :varchar</text>
<text text-anchor="start" x="1719.5" y="-308.3" font-family="Times,serif" font-size="14.00">uniprot_ac :varchar</text>
<text text-anchor="start" x="1719.5" y="-293.3" font-family="Times,serif" font-size="14.00">uniprot_id :varchar</text>
<text text-anchor="start" x="1719.5" y="-278.3" font-family="Times,serif" font-size="14.00">domain :text</text>
<text text-anchor="start" x="1719.5" y="-263.3" font-family="Times,serif" font-size="14.00">mgi_symbol :varchar</text>
<text text-anchor="start" x="1719.5" y="-248.3" font-family="Times,serif" font-size="14.00">mgi_id :varchar</text>
<text text-anchor="start" x="1719.5" y="-233.3" font-family="Times,serif" font-size="14.00">uniprot_ac_mm :varchar</text>
<text text-anchor="start" x="1719.5" y="-218.3" font-family="Times,serif" font-size="14.00">uniprot_id_mm :varchar</text>
<text text-anchor="start" x="1719.5" y="-203.3" font-family="Times,serif" font-size="14.00">gene_tag :varchar</text>
<text text-anchor="start" x="1719.5" y="-188.3" font-family="Times,serif" font-size="14.00">gene_desc :varchar</text>
<text text-anchor="start" x="1719.5" y="-173.3" font-family="Times,serif" font-size="14.00">function :varchar</text>
<text text-anchor="start" x="1719.5" y="-158.3" font-family="Times,serif" font-size="14.00">modification :varchar</text>
<text text-anchor="start" x="1719.5" y="-143.3" font-family="Times,serif" font-size="14.00">pmid_function :varchar</text>
<text text-anchor="start" x="1719.5" y="-128.3" font-family="Times,serif" font-size="14.00">complex_name :varchar</text>
<text text-anchor="start" x="1719.5" y="-113.3" font-family="Times,serif" font-size="14.00">target :varchar</text>
<text text-anchor="start" x="1719.5" y="-98.3" font-family="Times,serif" font-size="14.00">specific_target :varchar</text>
<text text-anchor="start" x="1719.5" y="-83.3" font-family="Times,serif" font-size="14.00">product :varchar</text>
<text text-anchor="start" x="1719.5" y="-68.3" font-family="Times,serif" font-size="14.00">uniprot_id_target :varchar</text>
<text text-anchor="start" x="1719.5" y="-53.3" font-family="Times,serif" font-size="14.00">pmid_target :varchar</text>
<text text-anchor="start" x="1719.5" y="-38.3" font-family="Times,serif" font-size="14.00">comment :text</text>
<text text-anchor="start" x="1719.5" y="-23.3" font-family="Times,serif" font-size="14.00">created_at :datetime</text>
<text text-anchor="start" x="1719.5" y="-8.3" font-family="Times,serif" font-size="14.00">updated_at :datetime</text>
</g>
</g>
</svg>
